<svg xmlns="http://www.w3.org/2000/svg" width="40" height="40" viewBox="0 0 40 40" fill="none">
  <path
    d="M19.9998 3.46021L20.7585 3.84801C23.7013 5.35241 26.2213 7.56351 28.0955 10.2579C29.642 9.52339 31.298 8.98122 33.0322 8.66267L35 8.30121V21.6663C35 29.9504 28.2843 36.6666 20 36.6666C11.7157 36.6666 5 29.9509 5 21.6666V8.30121L6.96777 8.66267C8.70192 8.9812 10.3578 9.52332 11.9042 10.2578C13.7784 7.56344 16.2984 5.35237 19.2412 3.84801L19.9998 3.46021ZM14.7959 11.9418C16.8455 13.3775 18.6132 15.1878 20 17.2741C21.387 15.1879 23.155 13.3774 25.2038 11.9419C23.8253 10.0266 22.0503 8.41541 19.9998 7.22904C17.9495 8.41536 16.1745 10.0265 14.7959 11.9418ZM18.1655 20.7229C16.697 17.8671 14.4265 15.4887 11.6519 13.8871C10.6112 13.2864 9.49983 12.7951 8.33333 12.4288V21.6666C8.33333 27.1499 12.116 31.7496 17.2142 32.9986C16.8562 31.5006 16.6667 29.9381 16.6667 28.3329C16.6667 25.6384 17.1997 23.0686 18.1655 20.7229ZM20.7552 33.3093C26.8465 32.9201 31.6667 27.8559 31.6667 21.6663V12.4288C30.5 12.7952 29.3887 13.2865 28.348 13.8872C23.3545 16.7696 20 22.1606 20 28.3329C20 30.0684 20.2647 31.7394 20.7552 33.3093Z"
    fill="#10B981" />
</svg>