<svg width="48" height="48" viewBox="0 0 48 48" fill="none" xmlns="http://www.w3.org/2000/svg">
<g filter="url(#filter0_i_4206_2234)">
<path d="M30 24.3691C30 30.7204 24 35.8691 24 35.8691C24 35.8691 18 30.7204 18 24.3691C18 18.0179 24 12.8691 24 12.8691C24 12.8691 30 18.0179 30 24.3691Z" fill="url(#paint0_linear_4206_2234)"/>
</g>
<g filter="url(#filter1_i_4206_2234)">
<path d="M32.9439 29.4255C30.2968 34.4763 24 35.9308 24 35.9308C24 35.9308 21.9951 29.1962 24.6422 24.1454C27.2893 19.0945 33.5861 17.64 33.5861 17.64C33.5861 17.64 35.591 24.3746 32.9439 29.4255Z" fill="url(#paint1_linear_4206_2234)"/>
</g>
<g filter="url(#filter2_i_4206_2234)">
<path d="M15.0561 29.4255C17.7032 34.4763 24 35.9308 24 35.9308C24 35.9308 26.005 29.1962 23.3579 24.1454C20.7108 19.0945 14.414 17.64 14.414 17.64C14.414 17.64 12.409 24.3746 15.0561 29.4255Z" fill="url(#paint2_linear_4206_2234)"/>
</g>
<g filter="url(#filter3_i_4206_2234)">
<path d="M13.3018 35.658C17.8867 38.419 24 36.3278 24 36.3278C24 36.3278 22.6797 29.7602 18.0948 26.9992C13.5098 24.2382 7.39652 26.3294 7.39652 26.3294C7.39652 26.3294 8.71683 32.897 13.3018 35.658Z" fill="url(#paint3_linear_4206_2234)"/>
</g>
<g filter="url(#filter4_i_4206_2234)">
<path d="M34.6982 35.658C30.1133 38.419 24 36.3278 24 36.3278C24 36.3278 25.3203 29.7602 29.9052 26.9992C34.4902 24.2382 40.6035 26.3294 40.6035 26.3294C40.6035 26.3294 39.2832 32.897 34.6982 35.658Z" fill="url(#paint4_linear_4206_2234)"/>
</g>
<g clip-path="url(#clip0_4206_2234)">
<path d="M8.99999 13.1667L10.3333 15.6667L12.8333 17.0001L10.3333 18.3334L8.99999 20.8334L7.66666 18.3334L5.16666 17.0001L7.66666 15.6667L8.99999 13.1667Z" fill="#E1E8F6"/>
</g>
<g clip-path="url(#clip1_4206_2234)">
<path d="M34 7.125L35 9L36.875 10L35 11L34 12.875L33 11L31.125 10L33 9L34 7.125Z" fill="#E1E8F6"/>
</g>
<defs>
<filter id="filter0_i_4206_2234" x="18" y="12.8691" width="12" height="23" filterUnits="userSpaceOnUse" color-interpolation-filters="sRGB">
<feFlood flood-opacity="0" result="BackgroundImageFix"/>
<feBlend mode="normal" in="SourceGraphic" in2="BackgroundImageFix" result="shape"/>
<feColorMatrix in="SourceAlpha" type="matrix" values="0 0 0 0 0 0 0 0 0 0 0 0 0 0 0 0 0 0 127 0" result="hardAlpha"/>
<feOffset dy="0.5"/>
<feComposite in2="hardAlpha" operator="arithmetic" k2="-1" k3="1"/>
<feColorMatrix type="matrix" values="0 0 0 0 1 0 0 0 0 1 0 0 0 0 1 0 0 0 0.8 0"/>
<feBlend mode="normal" in2="shape" result="effect1_innerShadow_4206_2234"/>
</filter>
<filter id="filter1_i_4206_2234" x="23.2726" y="17.6401" width="11.041" height="18.2908" filterUnits="userSpaceOnUse" color-interpolation-filters="sRGB">
<feFlood flood-opacity="0" result="BackgroundImageFix"/>
<feBlend mode="normal" in="SourceGraphic" in2="BackgroundImageFix" result="shape"/>
<feColorMatrix in="SourceAlpha" type="matrix" values="0 0 0 0 0 0 0 0 0 0 0 0 0 0 0 0 0 0 127 0" result="hardAlpha"/>
<feOffset dx="-0.4" dy="0.4"/>
<feComposite in2="hardAlpha" operator="arithmetic" k2="-1" k3="1"/>
<feColorMatrix type="matrix" values="0 0 0 0 1 0 0 0 0 1 0 0 0 0 1 0 0 0 0.8 0"/>
<feBlend mode="normal" in2="shape" result="effect1_innerShadow_4206_2234"/>
</filter>
<filter id="filter2_i_4206_2234" x="13.6865" y="17.6401" width="11.041" height="18.2908" filterUnits="userSpaceOnUse" color-interpolation-filters="sRGB">
<feFlood flood-opacity="0" result="BackgroundImageFix"/>
<feBlend mode="normal" in="SourceGraphic" in2="BackgroundImageFix" result="shape"/>
<feColorMatrix in="SourceAlpha" type="matrix" values="0 0 0 0 0 0 0 0 0 0 0 0 0 0 0 0 0 0 127 0" result="hardAlpha"/>
<feOffset dx="0.4" dy="0.4"/>
<feComposite in2="hardAlpha" operator="arithmetic" k2="-1" k3="1"/>
<feColorMatrix type="matrix" values="0 0 0 0 1 0 0 0 0 1 0 0 0 0 1 0 0 0 0.8 0"/>
<feBlend mode="normal" in2="shape" result="effect1_innerShadow_4206_2234"/>
</filter>
<filter id="filter3_i_4206_2234" x="7.39651" y="25.5706" width="16.6035" height="11.5161" filterUnits="userSpaceOnUse" color-interpolation-filters="sRGB">
<feFlood flood-opacity="0" result="BackgroundImageFix"/>
<feBlend mode="normal" in="SourceGraphic" in2="BackgroundImageFix" result="shape"/>
<feColorMatrix in="SourceAlpha" type="matrix" values="0 0 0 0 0 0 0 0 0 0 0 0 0 0 0 0 0 0 127 0" result="hardAlpha"/>
<feOffset dx="0.4" dy="0.4"/>
<feComposite in2="hardAlpha" operator="arithmetic" k2="-1" k3="1"/>
<feColorMatrix type="matrix" values="0 0 0 0 1 0 0 0 0 1 0 0 0 0 1 0 0 0 0.8 0"/>
<feBlend mode="normal" in2="shape" result="effect1_innerShadow_4206_2234"/>
</filter>
<filter id="filter4_i_4206_2234" x="24" y="25.5706" width="16.6035" height="11.5161" filterUnits="userSpaceOnUse" color-interpolation-filters="sRGB">
<feFlood flood-opacity="0" result="BackgroundImageFix"/>
<feBlend mode="normal" in="SourceGraphic" in2="BackgroundImageFix" result="shape"/>
<feColorMatrix in="SourceAlpha" type="matrix" values="0 0 0 0 0 0 0 0 0 0 0 0 0 0 0 0 0 0 127 0" result="hardAlpha"/>
<feOffset dx="-0.4" dy="0.4"/>
<feComposite in2="hardAlpha" operator="arithmetic" k2="-1" k3="1"/>
<feColorMatrix type="matrix" values="0 0 0 0 1 0 0 0 0 1 0 0 0 0 1 0 0 0 0.8 0"/>
<feBlend mode="normal" in2="shape" result="effect1_innerShadow_4206_2234"/>
</filter>
<linearGradient id="paint0_linear_4206_2234" x1="24" y1="17" x2="17.89" y2="25.7177" gradientUnits="userSpaceOnUse">
<stop stop-color="#FFE0C8" stop-opacity="0.8"/>
<stop offset="1" stop-color="#FD6BA3"/>
</linearGradient>
<linearGradient id="paint1_linear_4206_2234" x1="27.5" y1="17.5" x2="24.8698" y2="24.4331" gradientUnits="userSpaceOnUse">
<stop stop-color="#FFE0C8" stop-opacity="0.8"/>
<stop offset="1" stop-color="#FFB1CF"/>
</linearGradient>
<linearGradient id="paint2_linear_4206_2234" x1="20" y1="18.5" x2="22.5596" y2="24.4752" gradientUnits="userSpaceOnUse">
<stop stop-color="#FFE0C8" stop-opacity="0.8"/>
<stop offset="1" stop-color="#FFB1CF"/>
</linearGradient>
<linearGradient id="paint3_linear_4206_2234" x1="13" y1="21.5" x2="20.0419" y2="26.7424" gradientUnits="userSpaceOnUse">
<stop stop-color="#FFE0C8" stop-opacity="0.8"/>
<stop offset="1" stop-color="#FFBED7"/>
</linearGradient>
<linearGradient id="paint4_linear_4206_2234" x1="33.5" y1="24.5" x2="27.8406" y2="29.1763" gradientUnits="userSpaceOnUse">
<stop stop-color="#FFE0C8" stop-opacity="0.8"/>
<stop offset="1" stop-color="#FFBED7"/>
</linearGradient>
<clipPath id="clip0_4206_2234">
<rect width="8" height="8" fill="white" transform="translate(5 13)"/>
</clipPath>
<clipPath id="clip1_4206_2234">
<rect width="6" height="6" fill="white" transform="translate(31 7)"/>
</clipPath>
</defs>
</svg>
