<svg width="319" height="100" viewBox="0 0 319 100" fill="none" xmlns="http://www.w3.org/2000/svg">
<path d="M213.512 29.6293L218.174 39.4923L228.6 41.0742C230.894 41.4221 231.814 44.3684 230.152 46.0592L222.606 53.7366L224.387 64.5765C224.779 66.9644 222.378 68.7852 220.324 67.6577L211.001 62.5396L201.676 67.6577C199.624 68.7852 197.222 66.9644 197.614 64.5765L199.395 53.7366L191.849 46.0592C190.187 44.3684 191.104 41.4221 193.4 41.0742L203.826 39.4923L208.49 29.6293C209.517 27.4569 212.484 27.4569 213.512 29.6293Z" fill="#CBD5E1"/>
<path d="M261.512 29.6293L266.174 39.4923L276.6 41.0742C278.894 41.4221 279.814 44.3684 278.152 46.0592L270.606 53.7366L272.387 64.5765C272.779 66.9644 270.378 68.7852 268.324 67.6577L259.001 62.5396L249.676 67.6577C247.624 68.7852 245.222 66.9644 245.614 64.5765L247.395 53.7366L239.849 46.0592C238.187 44.3684 239.104 41.4221 241.4 41.0742L251.826 39.4923L256.49 29.6293C257.517 27.4569 260.484 27.4569 261.512 29.6293Z" fill="#CBD5E1"/>
<path d="M165.512 29.6293L170.174 39.4923L180.6 41.0742C182.894 41.4221 183.814 44.3684 182.152 46.0592L174.606 53.7366L176.387 64.5765C176.779 66.9644 174.378 68.7852 172.324 67.6577L163.001 62.5396L153.676 67.6577C151.624 68.7852 149.222 66.9644 149.614 64.5765L151.395 53.7366L143.849 46.0592C142.187 44.3684 143.104 41.4221 145.4 41.0742L155.826 39.4923L160.49 29.6293C161.517 27.4569 164.484 27.4569 165.512 29.6293Z" fill="#CBD5E1"/>
<g filter="url(#filter0_d_3909_8869)">
<path d="M117.512 29.6293L122.174 39.4923L132.6 41.0742C134.894 41.4221 135.814 44.3684 134.152 46.0592L126.606 53.7366L128.387 64.5765C128.779 66.9644 126.378 68.7852 124.324 67.6577L115.001 62.5396L105.676 67.6577C103.624 68.7852 101.222 66.9644 101.614 64.5765L103.395 53.7366L95.8487 46.0592C94.1868 44.3684 95.1038 41.4221 97.4002 41.0742L107.826 39.4923L112.49 29.6293C113.517 27.4569 116.484 27.4569 117.512 29.6293Z" fill="#FBBF24"/>
</g>
<g filter="url(#filter1_d_3909_8869)">
<path d="M69.5119 29.6293L74.1742 39.4923L84.6004 41.0742C86.8944 41.4221 87.8138 44.3684 86.1519 46.0592L78.6058 53.7366L80.3867 64.5765C80.7791 66.9644 78.3782 68.7852 76.3245 67.6577L67.0012 62.5396L57.6761 67.6577C55.6236 68.7852 53.2215 66.9644 53.6139 64.5765L55.3948 53.7366L47.8487 46.0592C46.1868 44.3684 47.1038 41.4221 49.4002 41.0742L59.8258 39.4923L64.4905 29.6293C65.5173 27.4569 68.4844 27.4569 69.5119 29.6293Z" fill="#FBBF24"/>
</g>
<g filter="url(#filter2_d_3909_8869)">
<path d="M130.377 70.2444L131.076 71.7238L132.64 71.9611C132.984 72.0133 133.122 72.4553 132.873 72.7089L131.741 73.8605L132.008 75.4865C132.067 75.8447 131.707 76.1178 131.399 75.9487L130 75.1809L128.601 75.9487C128.294 76.1178 127.933 75.8447 127.992 75.4865L128.259 73.8605L127.127 72.7089C126.878 72.4553 127.016 72.0133 127.36 71.9611L128.924 71.7238L129.624 70.2444C129.778 69.9185 130.223 69.9185 130.377 70.2444Z" fill="#FBBF24"/>
</g>
<g filter="url(#filter3_d_3909_8869)">
<path d="M42.3768 24.2444L43.0761 25.7238L44.6401 25.9611C44.9842 26.0133 45.1221 26.4553 44.8728 26.7089L43.7409 27.8605L44.008 29.4865C44.0669 29.8447 43.7067 30.1178 43.3987 29.9487L42.0002 29.1809L40.6014 29.9487C40.2935 30.1178 39.9332 29.8447 39.9921 29.4865L40.2592 27.8605L39.1273 26.7089C38.878 26.4553 39.0156 26.0133 39.36 25.9611L40.9239 25.7238L41.6236 24.2444C41.7776 23.9185 42.2227 23.9185 42.3768 24.2444Z" fill="#FBBF24"/>
</g>
<defs>
<filter id="filter0_d_3909_8869" x="77" y="14" width="76" height="76" filterUnits="userSpaceOnUse" color-interpolation-filters="sRGB">
<feFlood flood-opacity="0" result="BackgroundImageFix"/>
<feColorMatrix in="SourceAlpha" type="matrix" values="0 0 0 0 0 0 0 0 0 0 0 0 0 0 0 0 0 0 127 0" result="hardAlpha"/>
<feOffset dy="4"/>
<feGaussianBlur stdDeviation="9"/>
<feComposite in2="hardAlpha" operator="out"/>
<feColorMatrix type="matrix" values="0 0 0 0 0.984314 0 0 0 0 0.74902 0 0 0 0 0.141176 0 0 0 0.5 0"/>
<feBlend mode="normal" in2="BackgroundImageFix" result="effect1_dropShadow_3909_8869"/>
<feBlend mode="normal" in="SourceGraphic" in2="effect1_dropShadow_3909_8869" result="shape"/>
</filter>
<filter id="filter1_d_3909_8869" x="29" y="14" width="76" height="76" filterUnits="userSpaceOnUse" color-interpolation-filters="sRGB">
<feFlood flood-opacity="0" result="BackgroundImageFix"/>
<feColorMatrix in="SourceAlpha" type="matrix" values="0 0 0 0 0 0 0 0 0 0 0 0 0 0 0 0 0 0 127 0" result="hardAlpha"/>
<feOffset dy="4"/>
<feGaussianBlur stdDeviation="9"/>
<feComposite in2="hardAlpha" operator="out"/>
<feColorMatrix type="matrix" values="0 0 0 0 0.984314 0 0 0 0 0.74902 0 0 0 0 0.141176 0 0 0 0.5 0"/>
<feBlend mode="normal" in2="BackgroundImageFix" result="effect1_dropShadow_3909_8869"/>
<feBlend mode="normal" in="SourceGraphic" in2="effect1_dropShadow_3909_8869" result="shape"/>
</filter>
<filter id="filter2_d_3909_8869" x="109" y="56" width="42" height="42" filterUnits="userSpaceOnUse" color-interpolation-filters="sRGB">
<feFlood flood-opacity="0" result="BackgroundImageFix"/>
<feColorMatrix in="SourceAlpha" type="matrix" values="0 0 0 0 0 0 0 0 0 0 0 0 0 0 0 0 0 0 127 0" result="hardAlpha"/>
<feOffset dy="4"/>
<feGaussianBlur stdDeviation="9"/>
<feComposite in2="hardAlpha" operator="out"/>
<feColorMatrix type="matrix" values="0 0 0 0 0.984314 0 0 0 0 0.74902 0 0 0 0 0.141176 0 0 0 0.5 0"/>
<feBlend mode="normal" in2="BackgroundImageFix" result="effect1_dropShadow_3909_8869"/>
<feBlend mode="normal" in="SourceGraphic" in2="effect1_dropShadow_3909_8869" result="shape"/>
</filter>
<filter id="filter3_d_3909_8869" x="21" y="10" width="42" height="42" filterUnits="userSpaceOnUse" color-interpolation-filters="sRGB">
<feFlood flood-opacity="0" result="BackgroundImageFix"/>
<feColorMatrix in="SourceAlpha" type="matrix" values="0 0 0 0 0 0 0 0 0 0 0 0 0 0 0 0 0 0 127 0" result="hardAlpha"/>
<feOffset dy="4"/>
<feGaussianBlur stdDeviation="9"/>
<feComposite in2="hardAlpha" operator="out"/>
<feColorMatrix type="matrix" values="0 0 0 0 0.984314 0 0 0 0 0.74902 0 0 0 0 0.141176 0 0 0 0.5 0"/>
<feBlend mode="normal" in2="BackgroundImageFix" result="effect1_dropShadow_3909_8869"/>
<feBlend mode="normal" in="SourceGraphic" in2="effect1_dropShadow_3909_8869" result="shape"/>
</filter>
</defs>
</svg>
