<svg width="319" height="100" viewBox="0 0 319 100" fill="none" xmlns="http://www.w3.org/2000/svg">
<path d="M213.512 29.6293L218.174 39.4923L228.6 41.0742C230.894 41.4221 231.814 44.3684 230.152 46.0592L222.606 53.7366L224.387 64.5765C224.779 66.9644 222.378 68.7852 220.324 67.6577L211.001 62.5396L201.676 67.6577C199.624 68.7852 197.222 66.9644 197.614 64.5765L199.395 53.7366L191.849 46.0592C190.187 44.3684 191.104 41.4221 193.4 41.0742L203.826 39.4923L208.49 29.6293C209.517 27.4569 212.484 27.4569 213.512 29.6293Z" fill="#CBD5E1"/>
<path d="M261.512 29.6293L266.174 39.4923L276.6 41.0742C278.894 41.4221 279.814 44.3684 278.152 46.0592L270.606 53.7366L272.387 64.5765C272.779 66.9644 270.378 68.7852 268.324 67.6577L259.001 62.5396L249.676 67.6577C247.624 68.7852 245.222 66.9644 245.614 64.5765L247.395 53.7366L239.849 46.0592C238.187 44.3684 239.104 41.4221 241.4 41.0742L251.826 39.4923L256.49 29.6293C257.517 27.4569 260.484 27.4569 261.512 29.6293Z" fill="#CBD5E1"/>
<path d="M165.512 29.6293L170.174 39.4923L180.6 41.0742C182.894 41.4221 183.814 44.3684 182.152 46.0592L174.606 53.7366L176.387 64.5765C176.779 66.9644 174.378 68.7852 172.324 67.6577L163.001 62.5396L153.676 67.6577C151.624 68.7852 149.222 66.9644 149.614 64.5765L151.395 53.7366L143.849 46.0592C142.187 44.3684 143.104 41.4221 145.4 41.0742L155.826 39.4923L160.49 29.6293C161.517 27.4569 164.484 27.4569 165.512 29.6293Z" fill="#CBD5E1"/>
<path d="M117.512 29.6293L122.174 39.4923L132.6 41.0742C134.894 41.4221 135.814 44.3684 134.152 46.0592L126.606 53.7366L128.387 64.5765C128.779 66.9644 126.378 68.7852 124.324 67.6577L115.001 62.5396L105.676 67.6577C103.624 68.7852 101.222 66.9644 101.614 64.5765L103.395 53.7366L95.8487 46.0592C94.1868 44.3684 95.1038 41.4221 97.4002 41.0742L107.826 39.4923L112.49 29.6293C113.517 27.4569 116.484 27.4569 117.512 29.6293Z" fill="#CBD5E1"/>
<path d="M69.5119 29.6293L74.1742 39.4923L84.6004 41.0742C86.8944 41.4221 87.8138 44.3684 86.1519 46.0592L78.6058 53.7366L80.3867 64.5765C80.7791 66.9644 78.3782 68.7852 76.3245 67.6577L67.0012 62.5396L57.6761 67.6577C55.6236 68.7852 53.2215 66.9644 53.6139 64.5765L55.3948 53.7366L47.8487 46.0592C46.1868 44.3684 47.1038 41.4221 49.4002 41.0742L59.8258 39.4923L64.4905 29.6293C65.5173 27.4569 68.4844 27.4569 69.5119 29.6293Z" fill="#CBD5E1"/>
</svg>
