<svg width="16" height="16" viewBox="0 0 16 16" fill="none" xmlns="http://www.w3.org/2000/svg">
<path d="M13.3334 2V11.3333C13.3334 12.8061 12.1394 14 10.6667 14C9.19395 14 8.00002 12.8061 8.00002 11.3333C8.00002 9.8606 9.19395 8.66667 10.6667 8.66667C11.1524 8.66667 11.6078 8.79653 12 9.0234V3.33333H6.00002V11.3333C6.00002 12.8061 4.80611 14 3.33335 14C1.86059 14 0.666687 12.8061 0.666687 11.3333C0.666687 9.8606 1.86059 8.66667 3.33335 8.66667C3.81907 8.66667 4.27445 8.79653 4.66669 9.0234V2H13.3334ZM3.33335 12.6667C4.06973 12.6667 4.66669 12.0697 4.66669 11.3333C4.66669 10.5969 4.06973 10 3.33335 10C2.59697 10 2.00002 10.5969 2.00002 11.3333C2.00002 12.0697 2.59697 12.6667 3.33335 12.6667ZM10.6667 12.6667C11.4031 12.6667 12 12.0697 12 11.3333C12 10.5969 11.4031 10 10.6667 10C9.93029 10 9.33335 10.5969 9.33335 11.3333C9.33335 12.0697 9.93029 12.6667 10.6667 12.6667Z" fill="#4FBBA9"/>
</svg>
