<svg xmlns="http://www.w3.org/2000/svg" width="56" height="56" viewBox="0 0 56 56" fill="none">
<path d="M28.0001 51.3334C15.1134 51.3334 4.66675 40.8866 4.66675 28.0001C4.66675 15.1134 15.1134 4.66675 28.0001 4.66675C40.8866 4.66675 51.3334 15.1134 51.3334 28.0001C51.3334 40.8866 40.8866 51.3334 28.0001 51.3334ZM24.7845 19.6341C24.6312 19.5319 24.4511 19.4774 24.2667 19.4774C23.7513 19.4774 23.3334 19.8952 23.3334 20.4107V35.5895C23.3334 35.7738 23.388 35.9539 23.4902 36.1073C23.776 36.5361 24.3556 36.6521 24.7845 36.366L36.1686 28.7766C36.2711 28.7083 36.359 28.6203 36.4274 28.5178C36.7135 28.089 36.5975 27.5094 36.1686 27.2235L24.7845 19.6341Z" fill="white"/>
</svg>