<svg width="29" height="28" viewBox="0 0 29 28" fill="none" xmlns="http://www.w3.org/2000/svg">
<g id="&#233;&#135;&#141;&#231;&#189;&#174;">
<path id="Vector" d="M14.2499 25.6667C7.80659 25.6667 2.58325 20.4433 2.58325 14C2.58325 7.55668 7.80659 2.33334 14.2499 2.33334C20.6932 2.33334 25.9166 7.55668 25.9166 14C25.9166 20.4433 20.6932 25.6667 14.2499 25.6667ZM19.8734 19.9221C21.4399 18.4342 22.4166 16.3311 22.4166 14C22.4166 9.48969 18.7603 5.83334 14.2499 5.83334C9.7396 5.83334 6.08325 9.48969 6.08325 14C6.08325 18.5103 9.7396 22.1667 14.2499 22.1667C15.4876 22.1667 16.661 21.8913 17.7121 21.3987L16.5749 19.3516C15.8626 19.6615 15.0763 19.8333 14.2499 19.8333C11.0283 19.8333 8.41659 17.2216 8.41659 14C8.41659 10.7784 11.0283 8.16668 14.2499 8.16668C17.4716 8.16668 20.0833 10.7784 20.0833 14H16.5833L19.8734 19.9221Z" fill="#020617"/>
</g>
</svg>
