<svg width="48" height="48" viewBox="0 0 48 48" fill="none" xmlns="http://www.w3.org/2000/svg">
<g filter="url(#filter0_ii_4206_2411)">
<path d="M14 10L34 10V12.1538C34 18.1015 29.5228 22.9231 24 22.9231C18.4772 22.9231 14 18.1015 14 12.1538L14 10Z" fill="url(#paint0_radial_4206_2411)"/>
<path d="M34 38H14L14 35.8462C14 29.8985 18.4772 25.0769 24 25.0769C29.5228 25.0769 34 29.8985 34 35.8462V38Z" fill="url(#paint1_radial_4206_2411)"/>
<path d="M21.5 20.7692L26.5 20.7692L25.5 23.9999L26.5 27.2307H21.5L22.5 23.9999L21.5 20.7692Z" fill="url(#paint2_radial_4206_2411)"/>
</g>
<path d="M12 9C12 7.89543 12.8954 7 14 7L34 7C35.1046 7 36 7.89543 36 9L12 9Z" fill="#8AD0FF"/>
<path d="M12 39C12 40.1046 12.8954 41 14 41L34 41C35.1046 41 36 40.1046 36 39L12 39Z" fill="#8AD0FF"/>
<g filter="url(#filter1_i_4206_2411)">
<path d="M15 12C15 12 17.7914 11.5889 19.5 12C21.4546 12.4704 21.9957 14.6556 24 14.5C25.764 14.3632 26.0953 12.5458 27.7783 12C29.7181 11.371 33 12 33 12V13C33 17.9706 28.9706 22 24 22C19.0294 22 15 17.9706 15 13V12Z" fill="url(#paint3_linear_4206_2411)"/>
</g>
<path d="M15 37H33C33 32.0294 28.9706 28 24 28C19.0294 28 15 32.0294 15 37Z" fill="url(#paint4_linear_4206_2411)"/>
<rect x="23" y="21" width="2" height="8" fill="#FFBCA0"/>
<g clip-path="url(#clip0_4206_2411)">
<path d="M7.99999 13.1667L9.33332 15.6667L11.8333 17.0001L9.33332 18.3334L7.99999 20.8334L6.66666 18.3334L4.16666 17.0001L6.66666 15.6667L7.99999 13.1667Z" fill="#FFD378"/>
</g>
<g clip-path="url(#clip1_4206_2411)">
<path d="M38 24.125L39 26L40.875 27L39 28L38 29.875L37 28L35.125 27L37 26L38 24.125Z" fill="#FFD378"/>
</g>
<defs>
<filter id="filter0_ii_4206_2411" x="14" y="10" width="20" height="28" filterUnits="userSpaceOnUse" color-interpolation-filters="sRGB">
<feFlood flood-opacity="0" result="BackgroundImageFix"/>
<feBlend mode="normal" in="SourceGraphic" in2="BackgroundImageFix" result="shape"/>
<feColorMatrix in="SourceAlpha" type="matrix" values="0 0 0 0 0 0 0 0 0 0 0 0 0 0 0 0 0 0 127 0" result="hardAlpha"/>
<feOffset dx="0.2" dy="0.2"/>
<feComposite in2="hardAlpha" operator="arithmetic" k2="-1" k3="1"/>
<feColorMatrix type="matrix" values="0 0 0 0 1 0 0 0 0 1 0 0 0 0 1 0 0 0 0.35 0"/>
<feBlend mode="normal" in2="shape" result="effect1_innerShadow_4206_2411"/>
<feColorMatrix in="SourceAlpha" type="matrix" values="0 0 0 0 0 0 0 0 0 0 0 0 0 0 0 0 0 0 127 0" result="hardAlpha"/>
<feOffset dx="-0.2" dy="0.2"/>
<feComposite in2="hardAlpha" operator="arithmetic" k2="-1" k3="1"/>
<feColorMatrix type="matrix" values="0 0 0 0 1 0 0 0 0 1 0 0 0 0 1 0 0 0 0.35 0"/>
<feBlend mode="normal" in2="effect1_innerShadow_4206_2411" result="effect2_innerShadow_4206_2411"/>
</filter>
<filter id="filter1_i_4206_2411" x="15" y="11.7205" width="18" height="10.2795" filterUnits="userSpaceOnUse" color-interpolation-filters="sRGB">
<feFlood flood-opacity="0" result="BackgroundImageFix"/>
<feBlend mode="normal" in="SourceGraphic" in2="BackgroundImageFix" result="shape"/>
<feColorMatrix in="SourceAlpha" type="matrix" values="0 0 0 0 0 0 0 0 0 0 0 0 0 0 0 0 0 0 127 0" result="hardAlpha"/>
<feOffset dy="0.5"/>
<feComposite in2="hardAlpha" operator="arithmetic" k2="-1" k3="1"/>
<feColorMatrix type="matrix" values="0 0 0 0 1 0 0 0 0 1 0 0 0 0 1 0 0 0 0.65 0"/>
<feBlend mode="normal" in2="shape" result="effect1_innerShadow_4206_2411"/>
</filter>
<radialGradient id="paint0_radial_4206_2411" cx="0" cy="0" r="1" gradientUnits="userSpaceOnUse" gradientTransform="translate(24 24) rotate(90) scale(13 9.28571)">
<stop stop-color="#BFF3FF"/>
<stop offset="0.783654" stop-color="#A3E2FF" stop-opacity="0.8"/>
<stop offset="1" stop-color="#8BD8FF" stop-opacity="0.35"/>
</radialGradient>
<radialGradient id="paint1_radial_4206_2411" cx="0" cy="0" r="1" gradientUnits="userSpaceOnUse" gradientTransform="translate(24 24) rotate(90) scale(13 9.28571)">
<stop stop-color="#BFF3FF"/>
<stop offset="0.783654" stop-color="#A3E2FF" stop-opacity="0.8"/>
<stop offset="1" stop-color="#8BD8FF" stop-opacity="0.35"/>
</radialGradient>
<radialGradient id="paint2_radial_4206_2411" cx="0" cy="0" r="1" gradientUnits="userSpaceOnUse" gradientTransform="translate(24 24) rotate(90) scale(13 9.28571)">
<stop stop-color="#BFF3FF"/>
<stop offset="0.783654" stop-color="#A3E2FF" stop-opacity="0.8"/>
<stop offset="1" stop-color="#8BD8FF" stop-opacity="0.35"/>
</radialGradient>
<linearGradient id="paint3_linear_4206_2411" x1="24" y1="14.5" x2="24" y2="22" gradientUnits="userSpaceOnUse">
<stop stop-color="#FFEDB0"/>
<stop offset="1" stop-color="#FFBCA0"/>
</linearGradient>
<linearGradient id="paint4_linear_4206_2411" x1="24" y1="34.5664" x2="24" y2="28" gradientUnits="userSpaceOnUse">
<stop stop-color="#FFEDB0"/>
<stop offset="1" stop-color="#FFBCA0"/>
</linearGradient>
<clipPath id="clip0_4206_2411">
<rect width="8" height="8" fill="white" transform="translate(4 13)"/>
</clipPath>
<clipPath id="clip1_4206_2411">
<rect width="6" height="6" fill="white" transform="translate(35 24)"/>
</clipPath>
</defs>
</svg>
