<svg xmlns="http://www.w3.org/2000/svg" width="40" height="40" viewBox="0 0 40 40" fill="none">
  <path
    d="M9.99996 6.66659H6.66663V3.33325H33.3333V6.66659H30V9.99992C30 12.6923 28.6396 14.8577 26.9268 16.6277C25.7553 17.8383 24.33 18.9533 22.8848 19.9999C24.33 21.0466 25.7553 22.1616 26.9268 23.3721C28.6396 25.1421 30 27.3076 30 29.9999V33.3333H33.3333V36.6666H6.66663V33.3333H9.99996V29.9999C9.99996 27.3076 11.3602 25.1421 13.0731 23.3721C14.2447 22.1616 15.67 21.0466 17.1151 19.9999C15.67 18.9533 14.2447 17.8383 13.0731 16.6277C11.3602 14.8577 9.99996 12.6923 9.99996 9.99992V6.66659ZM13.3333 6.66659V9.99992C13.3333 11.4742 14.0564 12.8505 15.4685 14.3096C16.68 15.5616 18.258 16.7329 20 17.9634C21.742 16.7329 23.32 15.5616 24.5315 14.3096C25.9436 12.8505 26.6666 11.4742 26.6666 9.99992V6.66659H13.3333ZM20 22.0364C18.258 23.2669 16.68 24.4383 15.4685 25.6903C14.0564 27.1494 13.3333 28.5256 13.3333 29.9999V33.3333H26.6666V29.9999C26.6666 28.5256 25.9436 27.1494 24.5315 25.6903C23.32 24.4383 21.742 23.2669 20 22.0364Z"
    fill="#60A5FA" />
</svg>