<svg xmlns="http://www.w3.org/2000/svg" width="40" height="40" viewBox="0 0 40 40" fill="none">
<path d="M28.3345 2.01367L30.5325 6.13506L34.6538 8.33312L30.5325 10.5312L28.3345 14.6526L26.1363 10.5312L22.015 8.33312L26.1363 6.13506L28.3345 2.01367ZM17.7788 15.5553L26.1122 19.9998L17.7788 24.4443L13.3344 32.7776L8.88997 24.4443L0.556641 19.9998L8.88997 15.5553L13.3344 7.222L17.7788 15.5553ZM19.0288 19.9998L15.3151 18.0191L13.3344 14.3053L11.3537 18.0191L7.63997 19.9998L11.3537 21.9804L13.3344 25.6943L15.3151 21.9804L19.0288 19.9998ZM32.7788 27.2221L30.0012 22.0138L27.2233 27.2221L22.015 29.9998L27.2233 32.7776L30.0012 37.9859L32.7788 32.7776L37.9872 29.9998L32.7788 27.2221Z" fill="#FBBF24"/>
</svg>