<svg width="100" height="100" viewBox="0 0 100 100" fill="none" xmlns="http://www.w3.org/2000/svg">
<g id="&#232;&#181;&#132;&#230;&#186;&#144; 1 2" clip-path="url(#clip0_1770_14966)">
<g id="&#229;&#155;&#190;&#229;&#177;&#130; 2">
<g id="Objects">
<path id="Vector" d="M99.9962 50C100.015 62.8911 95.0372 75.2879 86.1089 84.5867L85.9561 84.7433C81.2933 89.5691 75.7068 93.4069 69.5295 96.028C63.3522 98.6491 56.7104 99.9999 50 99.9999C43.2896 99.9999 36.6479 98.6491 30.4706 96.028C24.2932 93.4069 18.7068 89.5691 14.044 84.7433L13.8912 84.5867C4.96143 75.2886 -0.0175665 62.8917 4.65706e-05 50C4.65706e-05 22.386 22.386 0 50 0C77.6141 0 99.9962 22.386 99.9962 50Z" fill="#1E293B"/>
<path id="Vector_2" d="M50 52.8045C60.619 52.8045 69.2275 44.1961 69.2275 33.577C69.2275 22.958 60.619 14.3495 50 14.3495C39.3809 14.3495 30.7725 22.958 30.7725 33.577C30.7725 44.1961 39.3809 52.8045 50 52.8045Z" fill="#CBD5E1"/>
<path id="Vector_3" d="M85.9561 81.815V84.7414C81.2933 89.5672 75.7068 93.405 69.5295 96.0261C63.3522 98.6472 56.7104 99.998 50 99.998C43.2896 99.998 36.6478 98.6472 30.4705 96.0261C24.2932 93.405 18.7067 89.5672 14.0439 84.7414V81.815C14.0439 67.0342 22.6161 59.1853 50 59.1853C78.3974 59.195 85.9561 68.3455 85.9561 81.815Z" fill="#CBD5E1"/>
</g>
</g>
</g>
<defs>
<clipPath id="clip0_1770_14966">
<rect width="100" height="100" fill="white"/>
</clipPath>
</defs>
</svg>
