<svg xmlns="http://www.w3.org/2000/svg" width="101" height="100" viewBox="0 0 101 100" fill="none">
<path d="M56.3932 20.8333H83.834C86.1353 20.8333 88.0007 22.6988 88.0007 25V29.1667H13.0006V16.6667C13.0006 14.3655 14.8661 12.5 17.1672 12.5H48.0598L56.3932 20.8333ZM13.3622 37.5H87.639C89.9403 37.5 91.8057 39.3655 91.8057 41.6667C91.8057 41.7821 91.8007 41.8975 91.7911 42.0125L88.319 83.6792C88.139 85.8387 86.3336 87.5 84.1665 87.5H16.8344C14.6674 87.5 12.8621 85.8387 12.6822 83.6792L9.20993 42.0125C9.01885 39.7195 10.723 37.7055 13.0162 37.5144C13.1313 37.5048 13.2467 37.5 13.3622 37.5Z" fill="#CBD5E1"/>
</svg>
