<svg width="16" height="16" viewBox="0 0 16 16" fill="none" xmlns="http://www.w3.org/2000/svg">
<g id="Frame">
<path id="Vector" d="M4 5.33268V4.66602C4 2.45688 5.79086 0.666016 8 0.666016C10.2091 0.666016 12 2.45688 12 4.66602V5.33268H13.3333C13.7015 5.33268 14 5.63116 14 5.99935V13.9993C14 14.3675 13.7015 14.666 13.3333 14.666H2.66667C2.29848 14.666 2 14.3675 2 13.9993V5.99935C2 5.63116 2.29848 5.33268 2.66667 5.33268H4ZM12.6667 6.66602H3.33333V13.3327H12.6667V6.66602ZM7.33333 10.4876C6.9348 10.2571 6.66667 9.82622 6.66667 9.33268C6.66667 8.59628 7.2636 7.99935 8 7.99935C8.7364 7.99935 9.33333 8.59628 9.33333 9.33268C9.33333 9.82622 9.0652 10.2571 8.66667 10.4876V11.9993H7.33333V10.4876ZM5.33333 5.33268H10.6667V4.66602C10.6667 3.19326 9.47273 1.99935 8 1.99935C6.52724 1.99935 5.33333 3.19326 5.33333 4.66602V5.33268Z" fill="black" fill-opacity="0.45"/>
</g>
</svg>
