<svg xmlns="http://www.w3.org/2000/svg" width="20" height="20" viewBox="0 0 20 20" fill="none">
<path d="M9.99984 18.3334C5.39746 18.3334 1.6665 14.6024 1.6665 10.0001C1.6665 5.39771 5.39746 1.66675 9.99984 1.66675C14.6022 1.66675 18.3332 5.39771 18.3332 10.0001C18.3332 14.6024 14.6022 18.3334 9.99984 18.3334ZM9.99984 16.6667C13.6818 16.6667 16.6665 13.682 16.6665 10.0001C16.6665 6.31818 13.6818 3.33341 9.99984 3.33341C6.31794 3.33341 3.33317 6.31818 3.33317 10.0001C3.33317 13.682 6.31794 16.6667 9.99984 16.6667ZM9.1665 12.5001H10.8332V14.1667H9.1665V12.5001ZM10.8332 11.1293V11.6667H9.1665V10.4167C9.1665 9.9565 9.53959 9.58341 9.99984 9.58341C10.6902 9.58341 11.2498 9.02375 11.2498 8.33341C11.2498 7.64306 10.6902 7.08341 9.99984 7.08341C9.39342 7.08341 8.88784 7.51527 8.77384 8.08822L7.13926 7.7613C7.40515 6.42441 8.58484 5.41675 9.99984 5.41675C11.6107 5.41675 12.9165 6.72258 12.9165 8.33341C12.9165 9.65466 12.0379 10.7707 10.8332 11.1293Z" fill="#94A3B8"/>
</svg>