<svg width="44" height="44" viewBox="0 0 44 44" fill="none" xmlns="http://www.w3.org/2000/svg">
<path d="M22.5 11L32 16.5V27.5L22.5 33L13 27.5V16.5L22.5 11ZM22.5 13.311L15 17.6531V26.3469L22.5 30.689L30 26.3469V17.6531L22.5 13.311ZM22.5 26C20.2909 26 18.5 24.2091 18.5 22C18.5 19.7909 20.2909 18 22.5 18C24.7091 18 26.5 19.7909 26.5 22C26.5 24.2091 24.7091 26 22.5 26ZM22.5 24C23.6046 24 24.5 23.1046 24.5 22C24.5 20.8954 23.6046 20 22.5 20C21.3954 20 20.5 20.8954 20.5 22C20.5 23.1046 21.3954 24 22.5 24Z" fill="black" fill-opacity="0.45"/>
</svg>
