<svg xmlns="http://www.w3.org/2000/svg" width="20" height="20" viewBox="0 0 20 20" fill="none">
  <path
    d="M10.9336 14.1856L7.43449 12.277C6.82621 12.927 5.96059 13.3333 5.00008 13.3333C3.15913 13.3333 1.66675 11.8409 1.66675 9.99996C1.66675 8.15901 3.15913 6.66663 5.00008 6.66663C5.96054 6.66663 6.82612 7.07284 7.4344 7.72284L10.9336 5.81423C10.8682 5.55363 10.8334 5.28085 10.8334 4.99996C10.8334 3.15901 12.3258 1.66663 14.1667 1.66663C16.0077 1.66663 17.5001 3.15901 17.5001 4.99996C17.5001 6.84091 16.0077 8.33329 14.1667 8.33329C13.2062 8.33329 12.3407 7.92705 11.7323 7.27701L8.23322 9.18563C8.29866 9.44621 8.33341 9.71904 8.33341 9.99996C8.33341 10.2809 8.29867 10.5536 8.23326 10.8142L11.7324 12.7229C12.3407 12.0729 13.2062 11.6666 14.1667 11.6666C16.0077 11.6666 17.5001 13.159 17.5001 15C17.5001 16.8409 16.0077 18.3333 14.1667 18.3333C12.3258 18.3333 10.8334 16.8409 10.8334 15C10.8334 14.719 10.8682 14.4462 10.9336 14.1856ZM5.00008 11.6666C5.92056 11.6666 6.66675 10.9205 6.66675 9.99996C6.66675 9.07946 5.92056 8.33329 5.00008 8.33329C4.07961 8.33329 3.33341 9.07946 3.33341 9.99996C3.33341 10.9205 4.07961 11.6666 5.00008 11.6666ZM14.1667 6.66663C15.0872 6.66663 15.8334 5.92043 15.8334 4.99996C15.8334 4.07948 15.0872 3.33329 14.1667 3.33329C13.2462 3.33329 12.5001 4.07948 12.5001 4.99996C12.5001 5.92043 13.2462 6.66663 14.1667 6.66663ZM14.1667 16.6666C15.0872 16.6666 15.8334 15.9205 15.8334 15C15.8334 14.0795 15.0872 13.3333 14.1667 13.3333C13.2462 13.3333 12.5001 14.0795 12.5001 15C12.5001 15.9205 13.2462 16.6666 14.1667 16.6666Z"
    fill="white" fill-opacity="0.8" />
</svg>