<svg xmlns="http://www.w3.org/2000/svg" width="20" height="20" viewBox="0 0 20 20" fill="none">
  <path
    d="M14.8677 13.0491L15.0143 13.1966L15.1622 13.0491C15.8945 12.3168 17.0817 12.3168 17.8139 13.0491C18.5462 13.7813 18.5462 14.9685 17.8139 15.7008L15.015 18.4997L12.216 15.7008C11.4837 14.9685 11.4837 13.7813 12.216 13.0491C12.9482 12.3168 14.1354 12.3168 14.8677 13.0491ZM10.0002 11.6666V13.3333C7.23874 13.3333 5.00016 15.5718 5.00016 18.3333H3.3335C3.3335 14.7208 6.2067 11.7795 9.7925 11.6698L10.0002 11.6666ZM10.0002 0.833252C12.7627 0.833252 15.0002 3.07075 15.0002 5.83325C15.0002 8.533 12.8632 10.7313 10.1877 10.8298L10.0002 10.8333C7.23766 10.8333 5.00016 8.59575 5.00016 5.83325C5.00016 3.13354 7.13711 0.935227 9.81266 0.836702L10.0002 0.833252ZM10.0002 2.49992C8.15814 2.49992 6.66683 3.99123 6.66683 5.83325C6.66683 7.67528 8.15814 9.16658 10.0002 9.16658C11.8422 9.16658 13.3335 7.67528 13.3335 5.83325C13.3335 3.99123 11.8422 2.49992 10.0002 2.49992Z"
    fill="#64748B" />
</svg>