<svg width="20" height="20" viewBox="0 0 20 20" fill="none" xmlns="http://www.w3.org/2000/svg">
<path d="M8.85873 3.51246C9.21795 2.40689 10.782 2.40689 11.1413 3.51246L11.9757 6.08065C12.1364 6.57508 12.5971 6.90983 13.117 6.90983H15.8173C16.9798 6.90983 17.4631 8.39737 16.5227 9.08065L14.3381 10.6679C13.9175 10.9735 13.7415 11.5151 13.9021 12.0095L14.7366 14.5777C15.0958 15.6833 13.8304 16.6026 12.89 15.9194L10.7053 14.3321C10.2848 14.0265 9.71524 14.0265 9.29466 14.3321L7.11002 15.9193C6.16957 16.6026 4.90419 15.6833 5.26341 14.5777L6.09787 12.0095C6.25852 11.5151 6.08253 10.9735 5.66194 10.6679L3.47731 9.08065C2.53686 8.39737 3.02019 6.90983 4.18265 6.90983H6.88301C7.40288 6.90983 7.86363 6.57508 8.02428 6.08065L8.85873 3.51246Z" fill="#F1B865"/>
</svg>
