<svg width="40" height="40" viewBox="0 0 40 40" fill="none" xmlns="http://www.w3.org/2000/svg">
  <g clip-path="url(#clip0_51_4803)">
    <g clip-path="url(#clip1_51_4803)">
      <rect width="40" height="40" fill="white" />
      <path
        d="M19.5 -5C34.68 -5 47 7.32 47 22.5C47 37.68 34.68 50 19.5 50C4.32 50 -8 37.68 -8 22.5C-8 7.32 4.32 -5 19.5 -5ZM3.06413 31.8948C7.09978 37.919 13.1616 41.75 19.9392 41.75C26.7168 41.75 32.7787 37.919 36.8143 31.8948C32.3934 27.7723 26.4608 25.25 19.9392 25.25C13.4176 25.25 7.48511 27.7723 3.06413 31.8948ZM19.5 19.75C24.0565 19.75 27.75 16.0563 27.75 11.5C27.75 6.94366 24.0565 3.25 19.5 3.25C14.9435 3.25 11.25 6.94366 11.25 11.5C11.25 16.0563 14.9435 19.75 19.5 19.75Z"
        fill="#94A3B8" />
    </g>
  </g>
  <defs>
    <clipPath id="clip0_51_4803">
      <rect width="40" height="40" rx="20" fill="white" />
    </clipPath>
    <clipPath id="clip1_51_4803">
      <rect width="40" height="40" fill="white" />
    </clipPath>
  </defs>
</svg>