<svg xmlns="http://www.w3.org/2000/svg" width="21" height="20" viewBox="0 0 21 20" fill="none">
  <path
    d="M13.8333 14.1667V13.3333H11.3333V10.8333H13.8333V12.5H15.5V14.1667H14.6667V15.8333H13V17.5H11.3333V15H13V14.1667H13.8333ZM18 17.5H14.6667V15.8333H16.3333V14.1667H18V17.5ZM3 2.5H9.66667V9.16667H3V2.5ZM4.66667 4.16667V7.5H8V4.16667H4.66667ZM11.3333 2.5H18V9.16667H11.3333V2.5ZM13 4.16667V7.5H16.3333V4.16667H13ZM3 10.8333H9.66667V17.5H3V10.8333ZM4.66667 12.5V15.8333H8V12.5H4.66667ZM15.5 10.8333H18V12.5H15.5V10.8333ZM5.5 5H7.16667V6.66667H5.5V5ZM5.5 13.3333H7.16667V15H5.5V13.3333ZM13.8333 5H15.5V6.66667H13.8333V5Z"
    fill="white" />
</svg>