<svg xmlns="http://www.w3.org/2000/svg" width="16" height="16" viewBox="0 0 16 16" fill="none">
  <path
    d="M4.66536 5.99992C5.58584 5.99992 6.33203 5.25373 6.33203 4.33325C6.33203 3.41278 5.58584 2.66659 4.66536 2.66659C3.74489 2.66659 2.9987 3.41278 2.9987 4.33325C2.9987 5.25373 3.74489 5.99992 4.66536 5.99992ZM4.66536 7.33325C3.00851 7.33325 1.66536 5.99011 1.66536 4.33325C1.66536 2.6764 3.00851 1.33325 4.66536 1.33325C6.32222 1.33325 7.66536 2.6764 7.66536 4.33325C7.66536 5.99011 6.32222 7.33325 4.66536 7.33325ZM11.6654 8.66659C12.4018 8.66659 12.9987 8.06965 12.9987 7.33325C12.9987 6.59687 12.4018 5.99992 11.6654 5.99992C10.929 5.99992 10.332 6.59687 10.332 7.33325C10.332 8.06965 10.929 8.66659 11.6654 8.66659ZM11.6654 9.99992C10.1926 9.99992 8.9987 8.80599 8.9987 7.33325C8.9987 5.86049 10.1926 4.66659 11.6654 4.66659C13.1381 4.66659 14.332 5.86049 14.332 7.33325C14.332 8.80599 13.1381 9.99992 11.6654 9.99992ZM13.332 13.9999V13.6666C13.332 12.7461 12.5858 11.9999 11.6654 11.9999C10.7449 11.9999 9.9987 12.7461 9.9987 13.6666V13.9999H8.66536V13.6666C8.66536 12.0097 10.0085 10.6666 11.6654 10.6666C13.3222 10.6666 14.6654 12.0097 14.6654 13.6666V13.9999H13.332ZM6.66536 13.9999V11.3333C6.66536 10.2287 5.76993 9.33325 4.66536 9.33325C3.5608 9.33325 2.66536 10.2287 2.66536 11.3333V13.9999H1.33203V11.3333C1.33203 9.49232 2.82442 7.99992 4.66536 7.99992C6.50631 7.99992 7.9987 9.49232 7.9987 11.3333V13.9999H6.66536Z"
    fill="currentColor" />
</svg>