<svg xmlns="http://www.w3.org/2000/svg" width="16" height="16" viewBox="0 0 16 16" fill="none">
  <path
    d="M1.87051 3.46667L4.67003 5.33301L7.46087 1.42583C7.67487 1.12623 8.09127 1.05683 8.39087 1.27083C8.45073 1.31359 8.50307 1.36597 8.54587 1.42583L11.3367 5.33301L14.1362 3.46667C14.4426 3.26243 14.8565 3.34521 15.0607 3.65157C15.1485 3.78331 15.1866 3.94201 15.1681 4.09926L14.0727 13.4109C14.0331 13.7466 13.7486 13.9997 13.4105 13.9997H2.5962C2.25815 13.9997 1.9736 13.7466 1.9341 13.4109L0.838613 4.09926C0.795593 3.73359 1.05715 3.40229 1.42282 3.35927C1.58007 3.34077 1.73877 3.37884 1.87051 3.46667ZM8.0034 9.99969C8.73973 9.99969 9.33673 9.40276 9.33673 8.66636C9.33673 7.92996 8.73973 7.33303 8.0034 7.33303C7.267 7.33303 6.67007 7.92996 6.67007 8.66636C6.67007 9.40276 7.267 9.99969 8.0034 9.99969Z"
    fill="currentColor" />
</svg>