<svg xmlns="http://www.w3.org/2000/svg" width="16" height="16" viewBox="0 0 16 16" fill="none">
  <path
    d="M13.3334 14.6666H12.0001V13.3333C12.0001 12.2287 11.1047 11.3333 10.0001 11.3333H6.00008C4.89551 11.3333 4.00008 12.2287 4.00008 13.3333V14.6666H2.66675V13.3333C2.66675 11.4924 4.15913 9.99996 6.00008 9.99996H10.0001C11.841 9.99996 13.3334 11.4924 13.3334 13.3333V14.6666ZM8.00008 8.66663C5.79094 8.66663 4.00008 6.87576 4.00008 4.66663C4.00008 2.45749 5.79094 0.666626 8.00008 0.666626C10.2092 0.666626 12.0001 2.45749 12.0001 4.66663C12.0001 6.87576 10.2092 8.66663 8.00008 8.66663ZM8.00008 7.33329C9.47282 7.33329 10.6667 6.13939 10.6667 4.66663C10.6667 3.19387 9.47282 1.99996 8.00008 1.99996C6.52732 1.99996 5.33341 3.19387 5.33341 4.66663C5.33341 6.13939 6.52732 7.33329 8.00008 7.33329Z"
    fill="currentColor" />
</svg>