<svg xmlns="http://www.w3.org/2000/svg" width="16" height="16" viewBox="0 0 16 16" fill="none">
  <path fill-rule="evenodd" clip-rule="evenodd"
    d="M12.7547 2.00171H3.25181C3.03852 2.00171 2.83811 2.10376 2.71265 2.27626L0.164099 5.78052C0.0705815 5.90911 0.0808989 6.08584 0.188743 6.20267L7.75828 14.403C7.76435 14.4095 7.77061 14.4158 7.77715 14.4219C7.91241 14.5467 8.12328 14.5383 8.24815 14.403L15.8177 6.20267C15.9255 6.08584 15.9359 5.90911 15.8423 5.78052L13.2938 2.27626C13.1683 2.10376 12.9679 2.00171 12.7547 2.00171ZM8.00008 7.99992C8.73646 7.99992 9.33341 7.40297 9.33341 6.66659C9.33341 5.93021 8.73646 5.33325 8.00008 5.33325C7.2637 5.33325 6.66675 5.93021 6.66675 6.66659C6.66675 7.40297 7.2637 7.99992 8.00008 7.99992Z"
    fill="#FBBF24" />
</svg>