<svg xmlns="http://www.w3.org/2000/svg" width="21" height="20" viewBox="0 0 21 20" fill="none">
  <path
    d="M2.83814 4.33342L6.33754 6.66636L9.82609 1.78238C10.0936 1.40787 10.6141 1.32113 10.9886 1.58863C11.0634 1.64208 11.1288 1.70755 11.1823 1.78238L14.6709 6.66636L18.1703 4.33342C18.5533 4.07813 19.0706 4.18161 19.3259 4.56455C19.4357 4.72923 19.4832 4.92761 19.4602 5.12416L18.0908 16.7637C18.0414 17.1834 17.6858 17.4997 17.2632 17.4997H3.74525C3.32269 17.4997 2.967 17.1834 2.91763 16.7637L1.54827 5.12416C1.49449 4.66708 1.82144 4.25295 2.27853 4.19917C2.47509 4.17605 2.67347 4.22364 2.83814 4.33342ZM10.5043 12.4997C11.4247 12.4997 12.1709 11.7535 12.1709 10.833C12.1709 9.91254 11.4247 9.16637 10.5043 9.16637C9.58375 9.16637 8.83758 9.91254 8.83758 10.833C8.83758 11.7535 9.58375 12.4997 10.5043 12.4997Z"
    fill="#FBBF24" />
</svg>