<svg xmlns="http://www.w3.org/2000/svg" width="20" height="20" viewBox="0 0 20 20" fill="none">
  <path
    d="M5.83341 0.833374V2.50004H2.50008C2.03985 2.50004 1.66675 2.87314 1.66675 3.33337V16.6667C1.66675 17.127 2.03985 17.5 2.50008 17.5H8.96225C8.04735 16.3587 7.50008 14.91 7.50008 13.3334C7.50008 9.65146 10.4848 6.66671 14.1667 6.66671C15.7433 6.66671 17.1921 7.21397 18.3334 8.1289V3.33337C18.3334 2.87314 17.9603 2.50004 17.5001 2.50004H14.1667V0.833374H12.5001V2.50004H7.50008V0.833374H5.83341ZM19.1667 13.3334C19.1667 16.0948 16.9282 18.3334 14.1667 18.3334C11.4053 18.3334 9.16675 16.0948 9.16675 13.3334C9.16675 10.572 11.4053 8.33337 14.1667 8.33337C16.9282 8.33337 19.1667 10.572 19.1667 13.3334ZM13.3334 10V13.6785L15.2442 15.5893L16.4227 14.4108L15.0001 12.9882V10H13.3334Z"
    fill="black" fill-opacity="0.25" />
</svg>