<svg xmlns="http://www.w3.org/2000/svg" width="16" height="16" viewBox="0 0 16 16" fill="none">
  <path
    d="M13.3334 14.6667H12.0001V13.3334C12.0001 12.2288 11.1047 11.3334 10.0001 11.3334H6.00008C4.89551 11.3334 4.00008 12.2288 4.00008 13.3334V14.6667H2.66675V13.3334C2.66675 11.4925 4.15913 10.0001 6.00008 10.0001H10.0001C11.841 10.0001 13.3334 11.4925 13.3334 13.3334V14.6667ZM8.00008 8.66675C5.79094 8.66675 4.00008 6.87588 4.00008 4.66675C4.00008 2.45761 5.79094 0.666748 8.00008 0.666748C10.2092 0.666748 12.0001 2.45761 12.0001 4.66675C12.0001 6.87588 10.2092 8.66675 8.00008 8.66675ZM8.00008 7.33342C9.47282 7.33342 10.6667 6.13951 10.6667 4.66675C10.6667 3.19399 9.47282 2.00008 8.00008 2.00008C6.52732 2.00008 5.33341 3.19399 5.33341 4.66675C5.33341 6.13951 6.52732 7.33342 8.00008 7.33342Z"
    fill="black" fill-opacity="0.65" />
</svg>