<svg xmlns="http://www.w3.org/2000/svg" width="16" height="16" viewBox="0 0 16 16" fill="none">
  <path
    d="M4.66659 2.00008V0.666748H5.99992V2.00008H9.99992V0.666748H11.3333V2.00008H13.9999C14.3681 2.00008 14.6666 2.29856 14.6666 2.66675V6.00008H13.3333V3.33341H11.3333V4.66675H9.99992V3.33341H5.99992V4.66675H4.66659V3.33341H2.66659V12.6667H6.66659V14.0001H1.99992C1.63173 14.0001 1.33325 13.7016 1.33325 13.3334V2.66675C1.33325 2.29856 1.63173 2.00008 1.99992 2.00008H4.66659ZM11.3333 8.00008C9.86052 8.00008 8.66659 9.19401 8.66659 10.6667C8.66659 12.1395 9.86052 13.3334 11.3333 13.3334C12.806 13.3334 13.9999 12.1395 13.9999 10.6667C13.9999 9.19401 12.806 8.00008 11.3333 8.00008ZM7.33325 10.6667C7.33325 8.45761 9.12412 6.66675 11.3333 6.66675C13.5424 6.66675 15.3333 8.45761 15.3333 10.6667C15.3333 12.8759 13.5424 14.6667 11.3333 14.6667C9.12412 14.6667 7.33325 12.8759 7.33325 10.6667ZM10.6666 8.66675V10.9429L12.1952 12.4715L13.138 11.5287L11.9999 10.3906V8.66675H10.6666Z"
    fill="black" fill-opacity="0.65" />
</svg>