<svg xmlns="http://www.w3.org/2000/svg" width="20" height="20" viewBox="0 0 20 20" fill="none">
  <path
    d="M2.33814 4.33342L5.83754 6.66636L9.32609 1.78238C9.59359 1.40787 10.1141 1.32113 10.4886 1.58863C10.5634 1.64208 10.6288 1.70755 10.6823 1.78238L14.1709 6.66636L17.6703 4.33342C18.0533 4.07813 18.5706 4.18161 18.8259 4.56455C18.9357 4.72923 18.9832 4.92761 18.9602 5.12416L17.5908 16.7637C17.5414 17.1834 17.1858 17.4997 16.7632 17.4997H3.24525C2.82269 17.4997 2.467 17.1834 2.41763 16.7637L1.04827 5.12416C0.994493 4.66708 1.32144 4.25295 1.77853 4.19917C1.97509 4.17605 2.17347 4.22364 2.33814 4.33342ZM10.0043 12.4997C10.9247 12.4997 11.6709 11.7535 11.6709 10.833C11.6709 9.91254 10.9247 9.16637 10.0043 9.16637C9.08375 9.16637 8.33758 9.91254 8.33758 10.833C8.33758 11.7535 9.08375 12.4997 10.0043 12.4997Z"
    fill="white" />
</svg>