<svg xmlns="http://www.w3.org/2000/svg" width="20" height="20" viewBox="0 0 20 20" fill="none">
  <path
    d="M5.83341 0.833344V2.50001H2.50008C2.03985 2.50001 1.66675 2.87311 1.66675 3.33334V16.6667C1.66675 17.1269 2.03985 17.5 2.50008 17.5H8.96225C8.04735 16.3587 7.50008 14.9099 7.50008 13.3333C7.50008 9.65143 10.4848 6.66668 14.1667 6.66668C15.7433 6.66668 17.1921 7.21394 18.3334 8.12887V3.33334C18.3334 2.87311 17.9603 2.50001 17.5001 2.50001H14.1667V0.833344H12.5001V2.50001H7.50008V0.833344H5.83341ZM19.1667 13.3333C19.1667 16.0948 16.9282 18.3333 14.1667 18.3333C11.4053 18.3333 9.16675 16.0948 9.16675 13.3333C9.16675 10.5719 11.4053 8.33334 14.1667 8.33334C16.9282 8.33334 19.1667 10.5719 19.1667 13.3333ZM13.3334 10V13.6785L15.2442 15.5893L16.4227 14.4108L15.0001 12.9882V10H13.3334Z"
    fill="currentColor" />
</svg>