<svg xmlns="http://www.w3.org/2000/svg" width="16" height="16" viewBox="0 0 16 16" fill="none">
  <path fill-rule="evenodd" clip-rule="evenodd"
    d="M12.7546 2.00183H3.25173C3.03844 2.00183 2.83803 2.10388 2.71258 2.27638L0.164023 5.78064C0.0705052 5.90923 0.0808226 6.08596 0.188667 6.20279L7.7582 14.4031C7.76427 14.4097 7.77054 14.4159 7.77707 14.422C7.91234 14.5469 8.1232 14.5384 8.24807 14.4031L15.8177 6.20279C15.9255 6.08596 15.9358 5.90923 15.8423 5.78064L13.2937 2.27638C13.1683 2.10388 12.9679 2.00183 12.7546 2.00183ZM8.00001 8.00004C8.73638 8.00004 9.33334 7.40309 9.33334 6.66671C9.33334 5.93033 8.73638 5.33337 8.00001 5.33337C7.26363 5.33337 6.66667 5.93033 6.66667 6.66671C6.66667 7.40309 7.26363 8.00004 8.00001 8.00004Z"
    fill="currentColor" />
</svg>